<?xml version="1.0" encoding="UTF-8" standalone="no"?>
<!-- Created with Inkscape (http://www.inkscape.org/) -->

<svg
   width="2046.4705mm"
   height="589.3205mm"
   viewBox="0 0 2046.4705 589.3205"
   version="1.1"
   id="svg5"
   sodipodi:docname="packet-text-side-white.svg"
   inkscape:version="1.1.2 (0a00cf5339, 2022-02-04)"
   inkscape:export-xdpi="64.45858"
   inkscape:export-ydpi="64.45858"
   xmlns:inkscape="http://www.inkscape.org/namespaces/inkscape"
   xmlns:sodipodi="http://sodipodi.sourceforge.net/DTD/sodipodi-0.dtd"
   xmlns:xlink="http://www.w3.org/1999/xlink"
   xmlns="http://www.w3.org/2000/svg"
   xmlns:svg="http://www.w3.org/2000/svg">
  <sodipodi:namedview
     id="namedview7"
     pagecolor="#ffffff"
     bordercolor="#666666"
     borderopacity="1.0"
     inkscape:pageshadow="2"
     inkscape:pageopacity="0"
     inkscape:pagecheckerboard="true"
     inkscape:document-units="mm"
     showgrid="false"
     inkscape:zoom="0.079999996"
     inkscape:cx="2350.0001"
     inkscape:cy="1162.5001"
     inkscape:window-width="1920"
     inkscape:window-height="1021"
     inkscape:window-x="1366"
     inkscape:window-y="27"
     inkscape:window-maximized="1"
     inkscape:current-layer="layer4"
     showborder="false"
     inkscape:snap-object-midpoints="true"
     inkscape:snap-midpoints="true"
     fit-margin-top="0"
     fit-margin-left="0"
     fit-margin-right="0"
     fit-margin-bottom="0" />
  <defs
     id="defs2">
    <rect
       x="3002.5515"
       y="454.62628"
       width="5130.8125"
       height="1032.8639"
       id="rect7549" />
    <inkscape:path-effect
       effect="bspline"
       id="path-effect37115"
       is_visible="true"
       lpeversion="1"
       weight="33.333333"
       steps="2"
       helper_size="0"
       apply_no_weight="true"
       apply_with_weight="true"
       only_selected="false" />
    <linearGradient
       inkscape:collect="always"
       id="linearGradient23201">
      <stop
         style="stop-color:#42bfdd;stop-opacity:1"
         offset="0"
         id="stop23197" />
      <stop
         style="stop-color:#454ade;stop-opacity:1"
         offset="1"
         id="stop23199" />
    </linearGradient>
    <linearGradient
       id="linearGradient23171"
       inkscape:swatch="solid">
      <stop
         style="stop-color:#454ade;stop-opacity:1;"
         offset="0"
         id="stop23169" />
    </linearGradient>
    <rect
       x="-1114.1678"
       y="1229.1505"
       width="2338.7031"
       height="1675.7684"
       id="rect4286" />
    <inkscape:path-effect
       effect="fillet_chamfer"
       id="path-effect14064"
       is_visible="true"
       lpeversion="1"
       satellites_param="F,1,0,1,0,0,0,1 @ F,1,0,1,0,0.1,0,1 @ F,1,0,1,0,0,0,1"
       unit="px"
       method="auto"
       mode="F"
       radius="10"
       chamfer_steps="1"
       flexible="true"
       use_knot_distance="true"
       apply_no_radius="true"
       apply_with_radius="true"
       only_selected="false"
       hide_knots="false" />
    <inkscape:path-effect
       effect="fillet_chamfer"
       id="path-effect13910"
       is_visible="true"
       lpeversion="1"
       satellites_param="F,1,0,1,0,0.06,0,1 @ F,1,0,1,0,0.06,0,1 @ F,1,0,1,0,0.06,0,1 @ F,1,0,1,0,0.06,0,1"
       unit="px"
       method="auto"
       mode="F"
       radius="6"
       chamfer_steps="1"
       flexible="true"
       use_knot_distance="true"
       apply_no_radius="true"
       apply_with_radius="true"
       only_selected="false"
       hide_knots="false" />
    <linearGradient
       inkscape:collect="always"
       xlink:href="#linearGradient23201"
       id="linearGradient23203"
       x1="26.983786"
       y1="10.010943"
       x2="16.948284"
       y2="549.33142"
       gradientUnits="userSpaceOnUse" />
    <linearGradient
       inkscape:collect="always"
       xlink:href="#linearGradient23201"
       id="linearGradient38625"
       gradientUnits="userSpaceOnUse"
       x1="26.983786"
       y1="10.010943"
       x2="16.948284"
       y2="549.33142" />
    <linearGradient
       inkscape:collect="always"
       xlink:href="#linearGradient23201"
       id="linearGradient38627"
       gradientUnits="userSpaceOnUse"
       x1="26.983786"
       y1="10.010943"
       x2="16.948284"
       y2="549.33142" />
  </defs>
  <g
     inkscape:label="Base"
     inkscape:groupmode="layer"
     id="layer1"
     transform="translate(356.32338,14.989057)"
     style="display:inline">
    <g
       id="g21181"
       style="opacity:1;mix-blend-mode:normal;stroke:url(#linearGradient23203);stroke-opacity:1">
      <g
         id="g38149"
         style="stroke:#454add;stroke-width:3;stroke-miterlimit:4;stroke-dasharray:none;stroke-opacity:1"
         transform="matrix(0.86471064,0,0,0.86471064,-671.52358,34.036539)" />
    </g>
    <g
       id="g18915"
       transform="translate(-14.623873,-0.1151013)">
      <g
         id="g19138"
         transform="matrix(0.37259078,0.37049777,-0.37049777,0.37259078,-137.17511,-292.3492)" />
    </g>
    <path
       id="rect10301"
       style="opacity:0.986;mix-blend-mode:normal;fill:#ffffff;fill-opacity:0.999003;stroke:url(#linearGradient38625);stroke-width:50;stroke-opacity:1"
       d="m -288.92866,10.010943 631.82489,0 a 32.35923,32.35923 45 0 1 32.35923,32.35923 l 0,464.566537 a 42.394731,42.394731 135 0 1 -42.39473,42.39473 l -631.82489,0 a 32.35923,32.35923 45 0 1 -32.35923,-32.35923 l 0,-464.566536 a 42.394731,42.394731 135 0 1 42.39473,-42.394731 z"
       inkscape:path-effect="#path-effect13910"
       inkscape:original-d="M -331.32339,10.010943 H 375.25546 V 549.33144 h -706.57885 z"
       transform="translate(7.2916666e-6)" />
  </g>
  <g
     inkscape:groupmode="layer"
     id="layer2"
     inkscape:label="Text"
     style="display:inline"
     sodipodi:insensitive="true">
    <text
       xml:space="preserve"
       transform="matrix(0.26458333,0,0,0.26458333,461.4137,-225.24317)"
       id="text4284"
       style="font-style:normal;font-variant:normal;font-weight:normal;font-stretch:normal;font-size:333.333px;line-height:1.25;font-family:'Noto Sans Mono';-inkscape-font-specification:'Noto Sans Mono, Normal';font-variant-ligatures:normal;font-variant-caps:normal;font-variant-numeric:normal;font-variant-east-asian:normal;white-space:pre;shape-inside:url(#rect4286);display:inline;fill:#000000;fill-opacity:1;stroke:none"><tspan
         x="-1114.168"
         y="1532.4418"
         id="tspan998">
</tspan><tspan
         x="-1114.168"
         y="1949.1081"
         id="tspan1000">01000010
</tspan><tspan
         x="-1114.168"
         y="2365.7743"
         id="tspan1002">01101100
</tspan><tspan
         x="-1114.168"
         y="2782.4406"
         id="tspan1004">01100001</tspan></text>
  </g>
  <g
     inkscape:groupmode="layer"
     id="layer3"
     inkscape:label="Fold"
     style="display:inline"
     sodipodi:insensitive="true">
    <path
       style="display:inline;opacity:1;mix-blend-mode:normal;fill:#ffffff;fill-opacity:1;stroke:url(#linearGradient38627);stroke-width:49.485;stroke-linecap:butt;stroke-linejoin:miter;stroke-miterlimit:4;stroke-dasharray:none;stroke-opacity:1"
       d="M -331.32339,15.227544 -13.362909,252.94815 a 59.000494,59.000494 4.6665894e-7 0 0 70.657887,0 L 375.25547,15.227544"
       id="path11340"
       inkscape:original-d="M -331.32339,15.227544 21.966034,279.36155 375.25547,15.227544"
       inkscape:path-effect="#path-effect14064"
       transform="translate(356.3234,14.989057)" />
    <ellipse
       style="display:inline;opacity:1;mix-blend-mode:normal;fill:#ffffff;fill-opacity:1;stroke:#454add;stroke-width:3;stroke-linecap:butt;stroke-linejoin:round;stroke-miterlimit:4;stroke-dasharray:none;stroke-dashoffset:7.55906;stroke-opacity:1;paint-order:normal"
       id="path36382"
       cx="801.98956"
       cy="93.624893"
       rx="99.921204"
       ry="99.921188"
       transform="matrix(0.86471064,0,0,0.86471064,-315.20019,49.025596)" />
    <path
       style="display:inline;opacity:1;mix-blend-mode:normal;fill:none;stroke:#454add;stroke-width:3;stroke-linecap:butt;stroke-linejoin:miter;stroke-miterlimit:4;stroke-dasharray:none;stroke-opacity:1"
       d="M 901.91076,93.624894 H 702.06835 v 0"
       id="path36499"
       transform="matrix(0.86471064,0,0,0.86471064,-315.20019,49.025596)" />
    <path
       style="display:inline;opacity:1;mix-blend-mode:normal;fill:none;stroke:#454add;stroke-width:3;stroke-linecap:butt;stroke-linejoin:miter;stroke-miterlimit:4;stroke-dasharray:none;stroke-opacity:1"
       d="m 801.98954,43.730447 h 86.56701"
       id="path36503"
       transform="matrix(0.86471064,0,0,0.86471064,-315.20019,49.025596)" />
    <path
       style="display:inline;opacity:1;mix-blend-mode:normal;fill:none;stroke:#454add;stroke-width:3;stroke-linecap:butt;stroke-linejoin:miter;stroke-miterlimit:4;stroke-dasharray:none;stroke-opacity:1"
       d="m 801.98954,43.730447 v 0 h -86.56016 v -0.0032 0"
       id="path36507"
       transform="matrix(0.86471064,0,0,0.86471064,-315.20019,49.025596)" />
    <path
       style="display:inline;opacity:1;mix-blend-mode:normal;fill:none;stroke:#454add;stroke-width:3;stroke-linecap:butt;stroke-linejoin:miter;stroke-miterlimit:4;stroke-dasharray:none;stroke-opacity:1"
       d="M 888.51347,143.58549 H 801.98954 715.47905"
       id="path36511"
       transform="matrix(0.86471064,0,0,0.86471064,-315.20019,49.025596)" />
    <path
       style="display:inline;opacity:1;mix-blend-mode:normal;fill:none;stroke:#454add;stroke-width:3;stroke-linecap:butt;stroke-linejoin:miter;stroke-miterlimit:4;stroke-dasharray:none;stroke-opacity:1"
       d="m 754.25993,93.636178 c 0.004,16.642542 2.23929,33.296072 10.56627,54.094792 8.32698,20.79872 22.74483,45.74112 37.16454,45.741 14.41971,-1.1e-4 28.84007,-24.943 37.16687,-45.74156 8.32679,-20.79856 10.55963,-37.45176 10.56323,-54.0944 0.004,-16.642639 -2.22206,-33.273788 -10.5489,-54.075155 C 830.8451,18.759488 816.41785,-6.2102809 801.99019,-6.2103971 787.56252,-6.2105133 773.1361,18.759766 764.80932,39.561125 756.48255,60.362484 754.25576,76.993639 754.25993,93.636178 Z"
       id="path37113"
       inkscape:path-effect="#path-effect37115"
       inkscape:original-d="m 752.02896,93.624894 c 2.23535,16.653796 4.47048,33.307326 6.70533,49.960596 14.41897,24.94415 28.83682,49.88655 43.25527,74.83018 14.4212,-24.94363 28.84156,-49.88652 43.26195,-74.83018 2.23318,-16.6536 4.46603,-33.3068 6.69864,-49.960599 -2.22549,-16.631549 -4.45114,-33.262699 -6.67711,-49.894444 -14.42785,-24.971009 -28.8551,-49.9407776 -43.28348,-74.912305 -14.42672,24.9715274 -28.85314,49.941807 -43.28011,74.912305 -2.2266,16.632078 -4.45342,33.263228 -6.68049,49.894447 z"
       sodipodi:nodetypes="ccccccccc"
       transform="matrix(0.86471064,0,0,0.86471064,-315.20019,49.025596)" />
    <path
       style="display:inline;opacity:1;mix-blend-mode:normal;fill:none;stroke:#454add;stroke-width:3;stroke-linecap:butt;stroke-linejoin:miter;stroke-miterlimit:4;stroke-dasharray:none;stroke-opacity:1"
       d="M 801.98956,193.54608 V -6.2962921"
       id="path36497"
       transform="matrix(0.86471064,0,0,0.86471064,-315.20019,49.025596)" />
  </g>
  <g
     inkscape:groupmode="layer"
     id="layer4"
     inkscape:label="Title">
    <g
       aria-label="Packet Blade"
       transform="matrix(0.26458333,0,0,0.26458333,0,61.159571)"
       id="text7547"
       style="font-size:800px;line-height:1.25;font-family:'Open Sans';-inkscape-font-specification:'Open Sans, Normal';white-space:pre;shape-inside:url(#rect7549);fill:#ffffff;stroke:#fffffe">
      <path
         d="m 3229.8945,611.42851 q 110.5469,0 161.3282,43.35937 51.1718,42.96875 51.1718,123.4375 0,36.32813 -12.1093,69.14063 -11.7188,32.42187 -38.2813,57.42187 -26.5625,24.60938 -69.9219,39.0625 -42.9687,14.0625 -105.4687,14.0625 h -69.5313 v 224.60942 h -66.4062 V 611.42851 Z m -6.25,56.64062 h -76.5625 v 232.8125 h 62.1094 q 54.6875,0 91.0156,-11.71875 36.7188,-11.71875 55.0782,-37.89062 18.3593,-26.5625 18.3593,-70.3125 0,-57.03125 -36.3281,-84.76563 -36.3281,-28.125 -113.6719,-28.125 z"
         id="path907" />
      <path
         d="m 3712.3164,747.36601 q 76.5625,0 113.6719,34.375 37.1094,34.375 37.1094,109.76562 v 291.01567 h -47.2657 l -12.5,-63.2813 h -3.125 q -17.9687,23.4375 -37.5,39.4531 -19.5312,15.625 -45.3125,23.8282 -25.3906,7.8125 -62.5,7.8125 -39.0625,0 -69.5312,-13.6719 -30.0781,-13.6719 -47.6563,-41.4063 -17.1875,-27.7343 -17.1875,-70.3125 0,-64.0625 50.7813,-98.43747 50.7812,-34.375 154.6875,-37.5 l 73.8281,-3.125 v -26.17187 q 0,-55.46875 -23.8281,-77.73438 -23.8281,-22.26562 -67.1875,-22.26562 -33.5938,0 -64.0625,9.76562 -30.4688,9.76563 -57.8125,23.04688 l -19.9219,-49.21875 q 28.9063,-14.84375 66.4063,-25.39063 37.5,-10.54687 78.9062,-10.54687 z m 86.7188,224.21875 -65.2344,2.73437 q -80.0781,3.125 -112.8906,26.17187 -32.8125,23.0469 -32.8125,65.2344 0,36.7187 22.2656,54.2969 22.2656,17.5781 58.9844,17.5781 57.0312,0 93.3593,-31.6406 36.3282,-31.6407 36.3282,-94.9219 z"
         id="path909" />
      <path
         d="m 4168.1758,1190.3348 q -57.8125,0 -101.9531,-23.8282 -44.1407,-23.8281 -68.75,-72.6562 -24.6094,-48.8281 -24.6094,-123.04689 0,-77.73438 25.7812,-126.95313 26.1719,-49.60937 71.875,-73.4375 45.7032,-23.82812 103.9063,-23.82812 32.0312,0 61.7187,6.64062 30.0782,6.25 49.2188,16.01563 l -19.5313,54.29687 q -19.5312,-7.8125 -45.3125,-14.0625 -25.3906,-6.25 -47.6562,-6.25 -44.5313,0 -74.2188,19.14063 -29.2968,19.14062 -44.1406,56.25 -14.4531,37.10937 -14.4531,91.40625 0,51.95314 14.0625,88.67184 14.4531,36.7188 42.5781,56.25 28.5156,19.1407 71.0938,19.1407 33.9843,0 61.3281,-7.0313 27.3437,-7.4219 49.6094,-17.1875 v 57.8125 q -21.4844,10.9375 -48.0469,16.7969 -26.1719,5.8594 -62.5,5.8594 z"
         id="path911" />
      <path
         d="m 4444.3477,574.70976 v 315.625 q 0,15.625 -1.1719,38.28125 -1.1719,22.26562 -1.9531,39.45312 h 2.7343 q 8.2032,-10.15625 23.8282,-30.07812 16.0156,-19.92188 26.9531,-32.03125 l 142.1875,-151.5625 h 76.1719 l -172.2657,182.8125 184.7657,245.31254 h -78.125 l -151.1719,-202.73442 -51.9531,47.65622 v 155.0782 h -64.4532 V 574.70976 Z"
         id="path913" />
      <path
         d="m 4965.0508,746.58476 q 54.6875,0 93.75,24.21875 39.0625,24.21875 59.7656,67.96875 20.7031,43.35937 20.7031,101.5625 v 40.23437 h -295.7031 q 1.1719,75.39067 37.5,114.84377 36.3281,39.4531 102.3438,39.4531 40.625,0 71.875,-7.4219 31.25,-7.4218 64.8437,-21.875 v 57.0313 q -32.4219,14.4531 -64.4531,21.0937 -31.6406,6.6407 -75,6.6407 -61.7188,0 -107.8125,-25 -45.7031,-25.3907 -71.0938,-74.2188 -25.3906,-48.8281 -25.3906,-119.53124 0,-69.14063 23.0469,-119.53125 23.4375,-50.78125 65.625,-78.125 42.5781,-27.34375 100,-27.34375 z m -0.7813,53.125 q -51.9531,0 -82.8125,33.98437 -30.8593,33.98438 -36.7187,94.92188 h 226.5625 q -0.3906,-38.28125 -12.1094,-67.1875 -11.3281,-29.29688 -34.7656,-45.3125 -23.4375,-16.40625 -60.1563,-16.40625 z"
         id="path915" />
      <path
         d="m 5387.707,1137.2098 q 16.0157,0 32.8125,-2.7344 16.7969,-2.7344 27.3438,-6.6406 v 50.3906 q -11.3281,5.0781 -31.6406,8.5937 -19.9219,3.5157 -39.0625,3.5157 -33.9844,0 -61.7188,-11.7188 -27.7344,-12.1094 -44.5312,-40.625 -16.4063,-28.5156 -16.4063,-78.9062 V 805.17851 h -60.9375 v -31.64063 l 61.3281,-25.39062 25.7813,-92.96875 h 39.0625 v 99.21875 h 125.3906 v 50.78125 h -125.3906 v 251.95309 q 0,40.2344 18.3594,60.1563 18.75,19.9219 49.6093,19.9219 z"
         id="path917" />
      <path
         d="m 5752.1602,611.42851 h 161.7187 q 107.0313,0 160.9375,32.03125 53.9063,32.03125 53.9063,108.98437 0,33.20313 -12.8907,59.76563 -12.5,26.17187 -36.7187,43.35937 -24.2188,17.1875 -59.7656,23.82813 v 3.90625 q 37.5,5.85937 66.4062,21.48437 28.9063,15.625 45.3125,43.75 16.4063,28.125 16.4063,71.48442 0,52.7343 -24.6094,89.0625 -24.2188,36.3281 -68.75,55.0781 -44.5313,18.3594 -105.4688,18.3594 h -196.4843 z m 66.4062,244.92187 h 109.375 q 74.6094,0 103.125,-24.60937 28.9063,-24.60938 28.9063,-71.875 0,-48.82813 -34.375,-70.3125 -33.9844,-21.48438 -108.5938,-21.48438 h -98.4375 z m 0,55.85938 v 213.67184 h 118.75 q 76.1719,0 107.8125,-29.6875 31.6406,-30.0781 31.6406,-80.8593 0,-32.42192 -14.4531,-55.46879 -14.0625,-23.04688 -46.0937,-35.15625 -31.6407,-12.5 -84.7657,-12.5 z"
         id="path919" />
      <path
         d="m 6324.4258,1182.5223 h -65.2344 V 574.70976 h 65.2344 z"
         id="path921" />
      <path
         d="m 6621.3008,747.36601 q 76.5625,0 113.6719,34.375 37.1093,34.375 37.1093,109.76562 v 291.01567 h -47.2656 l -12.5,-63.2813 h -3.125 q -17.9687,23.4375 -37.5,39.4531 -19.5312,15.625 -45.3125,23.8282 -25.3906,7.8125 -62.5,7.8125 -39.0625,0 -69.5312,-13.6719 -30.0782,-13.6719 -47.6563,-41.4063 -17.1875,-27.7343 -17.1875,-70.3125 0,-64.0625 50.7813,-98.43747 50.7812,-34.375 154.6875,-37.5 l 73.8281,-3.125 v -26.17187 q 0,-55.46875 -23.8281,-77.73438 -23.8282,-22.26562 -67.1875,-22.26562 -33.5938,0 -64.0625,9.76562 -30.4688,9.76563 -57.8125,23.04688 l -19.9219,-49.21875 q 28.9062,-14.84375 66.4062,-25.39063 37.5,-10.54687 78.9063,-10.54687 z m 86.7187,224.21875 -65.2343,2.73437 q -80.0782,3.125 -112.8907,26.17187 -32.8125,23.0469 -32.8125,65.2344 0,36.7187 22.2657,54.2969 22.2656,17.5781 58.9843,17.5781 57.0313,0 93.3594,-31.6406 36.3281,-31.6407 36.3281,-94.9219 z"
         id="path923" />
      <path
         d="m 7058.0195,1190.3348 q -81.25,0 -128.9062,-55.4688 -47.2656,-55.4687 -47.2656,-164.84374 0,-110.54688 48.4375,-166.79688 48.4375,-56.64062 128.9062,-56.64062 33.9844,0 59.375,8.98437 25.3906,8.98438 43.75,24.21875 18.3594,14.84375 30.8594,33.98438 h 4.6875 q -1.5625,-12.10938 -3.125,-33.20313 -1.5625,-21.09375 -1.5625,-34.375 V 574.70976 h 64.8437 v 607.81254 h -52.3437 l -9.7656,-60.9375 h -2.7344 q -12.1094,19.1406 -30.8594,34.7656 -18.3594,15.625 -44.1406,25 -25.3906,8.9844 -60.1563,8.9844 z m 10.1563,-53.9063 q 68.75,0 97.2656,-39.0625 28.5156,-39.0625 28.5156,-116.01562 v -11.71875 q 0,-81.64062 -27.3437,-125.39062 -26.9531,-43.75 -98.4375,-43.75 -59.7656,0 -89.4531,46.09375 -29.6875,45.70312 -29.6875,125 0,78.90624 29.2968,121.87504 29.6875,42.9687 89.8438,42.9687 z"
         id="path925" />
      <path
         d="m 7559.9727,746.58476 q 54.6875,0 93.75,24.21875 39.0625,24.21875 59.7656,67.96875 20.7031,43.35937 20.7031,101.5625 v 40.23437 h -295.7031 q 1.1719,75.39067 37.5,114.84377 36.3281,39.4531 102.3437,39.4531 40.625,0 71.875,-7.4219 31.25,-7.4218 64.8438,-21.875 v 57.0313 q -32.4219,14.4531 -64.4531,21.0937 -31.6407,6.6407 -75,6.6407 -61.7188,0 -107.8125,-25 -45.7032,-25.3907 -71.0938,-74.2188 -25.3906,-48.8281 -25.3906,-119.53124 0,-69.14063 23.0469,-119.53125 23.4375,-50.78125 65.625,-78.125 42.5781,-27.34375 100,-27.34375 z m -0.7813,53.125 q -51.9531,0 -82.8125,33.98437 -30.8594,33.98438 -36.7187,94.92188 h 226.5625 q -0.3907,-38.28125 -12.1094,-67.1875 -11.3281,-29.29688 -34.7656,-45.3125 -23.4375,-16.40625 -60.1563,-16.40625 z"
         id="path927" />
    </g>
  </g>
</svg>
